<svg width="17" height="16" viewBox="0 0 17 16" fill="none" xmlns="http://www.w3.org/2000/svg">
<path d="M14.997 7.333V11.333C14.997 12.0403 14.716 12.7187 14.2159 13.2189C13.7157 13.719 13.0373 14 12.33 14H4.33001C3.62268 14 2.94432 13.719 2.44416 13.2189C1.944 12.7187 1.66301 12.0403 1.66301 11.333V5.333C1.66301 4.597 2.26001 4 2.99701 4H4.28301C4.72901 4 5.14501 3.777 5.39301 3.406L5.93401 2.594C6.18201 2.223 6.59801 2 7.04401 2H9.66401" stroke="#939290" strokeWidth="1.3" strokeLinecap="round" strokeLinejoin="round"/>
<path d="M13.663 1.33301V5.33301M11.663 3.33301H15.663M5.48102 8.69901L8.07602 11.402C8.21502 11.546 8.44602 11.546 8.58402 11.402L11.179 8.69901C11.497 8.36775 11.6704 7.92374 11.661 7.46465C11.6516 7.00556 11.4603 6.569 11.129 6.25101C10.7978 5.93301 10.3537 5.75963 9.89466 5.76901C9.43557 5.77839 8.99901 5.96975 8.68102 6.30101L8.33002 6.66701L7.97902 6.30001C7.66102 5.96875 7.22446 5.77739 6.76537 5.76801C6.30628 5.75863 5.86227 5.93201 5.53102 6.25001C5.19976 6.568 5.0084 7.00456 4.99902 7.46365C4.98964 7.92274 5.16302 8.36675 5.48102 8.69801V8.69901Z" stroke="#939290" strokeWidth="1.3" strokeLinecap="round" strokeLinejoin="round"/>
</svg>
