<svg width="14" height="19" viewBox="0 0 14 19" fill="none" xmlns="http://www.w3.org/2000/svg">
<path d="M12.833 17.473V6.14001C12.833 4.27301 12.833 3.34001 12.47 2.62701C12.1504 1.99964 11.6404 1.48959 11.013 1.17001C10.3 0.807007 9.36602 0.807007 7.50002 0.807007H6.50002C4.63302 0.807007 3.70002 0.807007 2.98602 1.17001C2.35902 1.49001 1.84902 2.00001 1.53002 2.62701C1.16602 3.34001 1.16602 4.27301 1.16602 6.14001V17.473L5.57002 14.677C6.08802 14.348 6.34702 14.184 6.62602 14.119C6.87202 14.063 7.12802 14.063 7.37402 14.119C7.65202 14.184 7.91102 14.349 8.42902 14.677L12.833 17.473Z" stroke="#FF9933" stroke-width="1.3" stroke-linecap="round" stroke-linejoin="round"/>
</svg>
