<svg xmlns="http://www.w3.org/2000/svg" width="16" height="16" fill="none" viewBox="0 0 16 16" class="mise-icon mise-icon-double-arrow-left"><path fill="currentColor" d="M7.504 13.451c.114.114.261.181.436.181.348 0 .61-.261.61-.61a.637.637 0 0 0-.175-.435L3.5 7.82l4.875-4.768a.648.648 0 0 0 .174-.436A.6.6 0 0 0 7.94 2a.602.602 0 0 0-.435.181l-5.303 5.19A.587.587 0 0 0 2 7.819c0 .168.073.322.2.45l5.304 5.182Zm5.98 0c.12.114.268.181.435.181a.6.6 0 0 0 .616-.61.636.636 0 0 0-.174-.435L9.487 7.82l4.874-4.768a.648.648 0 0 0 .13-.673A.605.605 0 0 0 13.92 2a.6.6 0 0 0-.428.181l-5.31 5.19a.583.583 0 0 0-.195.448c0 .168.067.322.195.45l5.303 5.182Z"></path></svg>